<?xml version="1.0" encoding="UTF-8" standalone="no"?>
<!DOCTYPE svg PUBLIC "-//W3C//DTD SVG 1.1//EN"
 "http://www.w3.org/Graphics/SVG/1.1/DTD/svg11.dtd">
<!-- Generated by graphviz version 2.43.0 (0)
 -->
<!-- Title: Ideas_to_Life_Processes_With_Dependencies Pages: 1 -->
<svg width="1692pt" height="335pt"
 viewBox="0.00 0.00 1692.00 335.00" xmlns="http://www.w3.org/2000/svg" xmlns:xlink="http://www.w3.org/1999/xlink">
<g id="graph0" class="graph" transform="scale(1 1) rotate(0) translate(4 331)">
<title>Ideas_to_Life_Processes_With_Dependencies</title>
<polygon fill="white" stroke="transparent" points="-4,4 -4,-331 1688,-331 1688,4 -4,4"/>
<g id="clust1" class="cluster">
<title>cluster_cheatsheet</title>
<polygon fill="white" stroke="#4f46e5" points="541.5,-8 541.5,-81 1676,-81 1676,-8 541.5,-8"/>
<text text-anchor="middle" x="1108.75" y="-67.4" font-family="Helvetica,sans-Serif" font-size="12.00" fill="#4f46e5">🧾 Cheatsheet Creation</text>
</g>
<g id="clust2" class="cluster">
<title>cluster_experiment</title>
<polygon fill="white" stroke="#059669" points="216,-119 216,-192 1216.5,-192 1216.5,-119 216,-119"/>
<text text-anchor="middle" x="716.25" y="-178.4" font-family="Helvetica,sans-Serif" font-size="12.00" fill="#059669">🧪 Experiment Publishing</text>
</g>
<g id="clust3" class="cluster">
<title>cluster_weekly</title>
<polygon fill="white" stroke="#d97706" points="37.5,-246 37.5,-319 1217.5,-319 1217.5,-246 37.5,-246"/>
<text text-anchor="middle" x="627.5" y="-305.4" font-family="Helvetica,sans-Serif" font-size="12.00" fill="#d97706">📘 Weekly Learnings</text>
</g>
<!-- g_charter -->
<g id="node1" class="node">
<title>g_charter</title>
<path fill="#f1f5f9" stroke="black" d="M693,-236C693,-236 494,-236 494,-236 488,-236 482,-230 482,-224 482,-224 482,-212 482,-212 482,-206 488,-200 494,-200 494,-200 693,-200 693,-200 699,-200 705,-206 705,-212 705,-212 705,-224 705,-224 705,-230 699,-236 693,-236"/>
<text text-anchor="middle" x="593.5" y="-221.2" font-family="Helvetica,sans-Serif" font-size="11.00">EXPERIMENTS CHARTER</text>
<text text-anchor="middle" x="593.5" y="-209.2" font-family="Helvetica,sans-Serif" font-size="11.00">(governance.experiments&#45;charter.v1)</text>
</g>
<!-- c4 -->
<g id="node6" class="node">
<title>c4</title>
<path fill="#e0e7ff" stroke="black" d="M1479,-52C1479,-52 1358,-52 1358,-52 1352,-52 1346,-46 1346,-40 1346,-40 1346,-28 1346,-28 1346,-22 1352,-16 1358,-16 1358,-16 1479,-16 1479,-16 1485,-16 1491,-22 1491,-28 1491,-28 1491,-40 1491,-40 1491,-46 1485,-52 1479,-52"/>
<text text-anchor="middle" x="1418.5" y="-31.2" font-family="Helvetica,sans-Serif" font-size="11.00">wire&#45;cheatsheet&#45;link.v1</text>
</g>
<!-- g_charter&#45;&gt;c4 -->
<g id="edge16" class="edge">
<title>g_charter&#45;&gt;c4</title>
<path fill="none" stroke="black" stroke-dasharray="5,2" d="M705.43,-218C936.11,-218 1443,-218 1443,-218 1443,-218 1443,-62.32 1443,-62.32"/>
<polygon fill="black" stroke="black" points="1446.5,-62.32 1443,-52.32 1439.5,-62.32 1446.5,-62.32"/>
<text text-anchor="middle" x="999" y="-221" font-family="Helvetica,sans-Serif" font-size="10.00">branding + rules</text>
</g>
<!-- e3 -->
<g id="node10" class="node">
<title>e3</title>
<path fill="#a7f3d0" stroke="black" d="M920,-163C920,-163 801,-163 801,-163 795,-163 789,-157 789,-151 789,-151 789,-139 789,-139 789,-133 795,-127 801,-127 801,-127 920,-127 920,-127 926,-127 932,-133 932,-139 932,-139 932,-151 932,-151 932,-157 926,-163 920,-163"/>
<text text-anchor="middle" x="860.5" y="-142.2" font-family="Helvetica,sans-Serif" font-size="11.00">deploy&#45;experiments.v1</text>
</g>
<!-- g_charter&#45;&gt;e3 -->
<g id="edge12" class="edge">
<title>g_charter&#45;&gt;e3</title>
<path fill="none" stroke="black" stroke-dasharray="5,2" d="M685,-199.69C685,-179.85 685,-151 685,-151 685,-151 778.86,-151 778.86,-151"/>
<polygon fill="black" stroke="black" points="778.86,-154.5 788.86,-151 778.86,-147.5 778.86,-154.5"/>
<text text-anchor="middle" x="743" y="-183" font-family="Helvetica,sans-Serif" font-size="10.00">governs</text>
</g>
<!-- g_template -->
<g id="node2" class="node">
<title>g_template</title>
<path fill="#f1f5f9" stroke="black" d="M153,-133C153,-133 12,-133 12,-133 6,-133 0,-127 0,-121 0,-121 0,-109 0,-109 0,-103 6,-97 12,-97 12,-97 153,-97 153,-97 159,-97 165,-103 165,-109 165,-109 165,-121 165,-121 165,-127 159,-133 153,-133"/>
<text text-anchor="middle" x="82.5" y="-118.2" font-family="Helvetica,sans-Serif" font-size="11.00">EXPERIMENT TEMPLATE</text>
<text text-anchor="middle" x="82.5" y="-106.2" font-family="Helvetica,sans-Serif" font-size="11.00">(experiments.template.v1)</text>
</g>
<!-- e1 -->
<g id="node8" class="node">
<title>e1</title>
<path fill="#ecfdf5" stroke="black" d="M377,-163C377,-163 236,-163 236,-163 230,-163 224,-157 224,-151 224,-151 224,-139 224,-139 224,-133 230,-127 236,-127 236,-127 377,-127 377,-127 383,-127 389,-133 389,-139 389,-139 389,-151 389,-151 389,-157 383,-163 377,-163"/>
<text text-anchor="middle" x="306.5" y="-148.2" font-family="Helvetica,sans-Serif" font-size="11.00">Frame idea</text>
<text text-anchor="middle" x="306.5" y="-136.2" font-family="Helvetica,sans-Serif" font-size="11.00">(experiments.template.v1)</text>
</g>
<!-- g_template&#45;&gt;e1 -->
<g id="edge14" class="edge">
<title>g_template&#45;&gt;e1</title>
<path fill="none" stroke="black" stroke-dasharray="5,2" d="M143,-133.04C143,-140.75 143,-148 143,-148 143,-148 213.79,-148 213.79,-148"/>
<polygon fill="black" stroke="black" points="213.79,-151.5 223.79,-148 213.79,-144.5 213.79,-151.5"/>
<text text-anchor="middle" x="194.5" y="-141" font-family="Helvetica,sans-Serif" font-size="10.00">uses</text>
</g>
<!-- g_template&#45;&gt;e3 -->
<g id="edge13" class="edge">
<title>g_template&#45;&gt;e3</title>
<path fill="none" stroke="black" stroke-dasharray="5,2" d="M165.08,-112C365.43,-112 861,-112 861,-112 861,-112 861,-116.96 861,-116.96"/>
<polygon fill="black" stroke="black" points="857.5,-116.96 861,-126.96 864.5,-116.96 857.5,-116.96"/>
<text text-anchor="middle" x="435.5" y="-102" font-family="Helvetica,sans-Serif" font-size="10.00">depends on</text>
</g>
<!-- c1 -->
<g id="node3" class="node">
<title>c1</title>
<path fill="#eef2ff" stroke="black" d="M625.5,-52C625.5,-52 561.5,-52 561.5,-52 555.5,-52 549.5,-46 549.5,-40 549.5,-40 549.5,-28 549.5,-28 549.5,-22 555.5,-16 561.5,-16 561.5,-16 625.5,-16 625.5,-16 631.5,-16 637.5,-22 637.5,-28 637.5,-28 637.5,-40 637.5,-40 637.5,-46 631.5,-52 625.5,-52"/>
<text text-anchor="middle" x="593.5" y="-37.2" font-family="Helvetica,sans-Serif" font-size="11.00">Choose topic</text>
<text text-anchor="middle" x="593.5" y="-25.2" font-family="Helvetica,sans-Serif" font-size="11.00">+ audience</text>
</g>
<!-- c2 -->
<g id="node4" class="node">
<title>c2</title>
<path fill="#e0e7ff" stroke="black" d="M923,-52C923,-52 798,-52 798,-52 792,-52 786,-46 786,-40 786,-40 786,-28 786,-28 786,-22 792,-16 798,-16 798,-16 923,-16 923,-16 929,-16 935,-22 935,-28 935,-28 935,-40 935,-40 935,-46 929,-52 923,-52"/>
<text text-anchor="middle" x="860.5" y="-31.2" font-family="Helvetica,sans-Serif" font-size="11.00">generate&#45;cheatsheet.v1</text>
</g>
<!-- c1&#45;&gt;c2 -->
<g id="edge1" class="edge">
<title>c1&#45;&gt;c2</title>
<path fill="none" stroke="black" d="M637.59,-34C637.59,-34 775.77,-34 775.77,-34"/>
<polygon fill="black" stroke="black" points="775.77,-37.5 785.77,-34 775.77,-30.5 775.77,-37.5"/>
</g>
<!-- c3 -->
<g id="node5" class="node">
<title>c3</title>
<path fill="#dbeafe" stroke="black" d="M1233,-52C1233,-52 1070,-52 1070,-52 1064,-52 1058,-46 1058,-40 1058,-40 1058,-28 1058,-28 1058,-22 1064,-16 1070,-16 1070,-16 1233,-16 1233,-16 1239,-16 1245,-22 1245,-28 1245,-28 1245,-40 1245,-40 1245,-46 1239,-52 1233,-52"/>
<text text-anchor="middle" x="1151.5" y="-31.2" font-family="Helvetica,sans-Serif" font-size="11.00">public/cheatsheets/&lt;file&gt;.html</text>
</g>
<!-- c2&#45;&gt;c3 -->
<g id="edge2" class="edge">
<title>c2&#45;&gt;c3</title>
<path fill="none" stroke="black" d="M935.06,-34C935.06,-34 1047.83,-34 1047.83,-34"/>
<polygon fill="black" stroke="black" points="1047.83,-37.5 1057.83,-34 1047.83,-30.5 1047.83,-37.5"/>
</g>
<!-- c3&#45;&gt;c4 -->
<g id="edge3" class="edge">
<title>c3&#45;&gt;c4</title>
<path fill="none" stroke="black" d="M1245.26,-34C1245.26,-34 1335.98,-34 1335.98,-34"/>
<polygon fill="black" stroke="black" points="1335.98,-37.5 1345.98,-34 1335.98,-30.5 1335.98,-37.5"/>
</g>
<!-- c5 -->
<g id="node7" class="node">
<title>c5</title>
<path fill="#eef2ff" stroke="black" d="M1656,-52C1656,-52 1540,-52 1540,-52 1534,-52 1528,-46 1528,-40 1528,-40 1528,-28 1528,-28 1528,-22 1534,-16 1540,-16 1540,-16 1656,-16 1656,-16 1662,-16 1668,-22 1668,-28 1668,-28 1668,-40 1668,-40 1668,-46 1662,-52 1656,-52"/>
<text text-anchor="middle" x="1598" y="-37.2" font-family="Helvetica,sans-Serif" font-size="11.00">Cheatsheet linked</text>
<text text-anchor="middle" x="1598" y="-25.2" font-family="Helvetica,sans-Serif" font-size="11.00">from experiment page</text>
</g>
<!-- c4&#45;&gt;c5 -->
<g id="edge4" class="edge">
<title>c4&#45;&gt;c5</title>
<path fill="none" stroke="black" d="M1491.25,-34C1491.25,-34 1517.76,-34 1517.76,-34"/>
<polygon fill="black" stroke="black" points="1517.76,-37.5 1527.76,-34 1517.76,-30.5 1517.76,-37.5"/>
</g>
<!-- e2 -->
<g id="node9" class="node">
<title>e2</title>
<path fill="#d1fae5" stroke="black" d="M651.5,-163C651.5,-163 535.5,-163 535.5,-163 529.5,-163 523.5,-157 523.5,-151 523.5,-151 523.5,-139 523.5,-139 523.5,-133 529.5,-127 535.5,-127 535.5,-127 651.5,-127 651.5,-127 657.5,-127 663.5,-133 663.5,-139 663.5,-139 663.5,-151 663.5,-151 663.5,-157 657.5,-163 651.5,-163"/>
<text text-anchor="middle" x="593.5" y="-142.2" font-family="Helvetica,sans-Serif" font-size="11.00">Experiment Markdown</text>
</g>
<!-- e1&#45;&gt;e2 -->
<g id="edge5" class="edge">
<title>e1&#45;&gt;e2</title>
<path fill="none" stroke="black" d="M389.13,-145C389.13,-145 513.11,-145 513.11,-145"/>
<polygon fill="black" stroke="black" points="513.11,-148.5 523.11,-145 513.11,-141.5 513.11,-148.5"/>
</g>
<!-- e2&#45;&gt;e3 -->
<g id="edge6" class="edge">
<title>e2&#45;&gt;e3</title>
<path fill="none" stroke="black" d="M663.65,-139C663.65,-139 778.96,-139 778.96,-139"/>
<polygon fill="black" stroke="black" points="778.96,-142.5 788.96,-139 778.96,-135.5 778.96,-142.5"/>
</g>
<!-- e4 -->
<g id="node11" class="node">
<title>e4</title>
<path fill="#ecfdf5" stroke="black" d="M1196.5,-163C1196.5,-163 1106.5,-163 1106.5,-163 1100.5,-163 1094.5,-157 1094.5,-151 1094.5,-151 1094.5,-139 1094.5,-139 1094.5,-133 1100.5,-127 1106.5,-127 1106.5,-127 1196.5,-127 1196.5,-127 1202.5,-127 1208.5,-133 1208.5,-139 1208.5,-139 1208.5,-151 1208.5,-151 1208.5,-157 1202.5,-163 1196.5,-163"/>
<text text-anchor="middle" x="1151.5" y="-148.2" font-family="Helvetica,sans-Serif" font-size="11.00">Experiment card</text>
<text text-anchor="middle" x="1151.5" y="-136.2" font-family="Helvetica,sans-Serif" font-size="11.00">+ detail page live</text>
</g>
<!-- e3&#45;&gt;e4 -->
<g id="edge7" class="edge">
<title>e3&#45;&gt;e4</title>
<path fill="none" stroke="black" d="M932.06,-145C932.06,-145 1084.35,-145 1084.35,-145"/>
<polygon fill="black" stroke="black" points="1084.35,-148.5 1094.35,-145 1084.35,-141.5 1084.35,-148.5"/>
</g>
<!-- e4&#45;&gt;c4 -->
<g id="edge15" class="edge">
<title>e4&#45;&gt;c4</title>
<path fill="none" stroke="black" stroke-dasharray="5,2" d="M1208.59,-145C1280.56,-145 1395,-145 1395,-145 1395,-145 1395,-62.33 1395,-62.33"/>
<polygon fill="black" stroke="black" points="1398.5,-62.33 1395,-52.33 1391.5,-62.33 1398.5,-62.33"/>
<text text-anchor="middle" x="1295.5" y="-105" font-family="Helvetica,sans-Serif" font-size="10.00">links artefact</text>
</g>
<!-- w1 -->
<g id="node12" class="node">
<title>w1</title>
<path fill="#fffbeb" stroke="black" d="M107.5,-290C107.5,-290 57.5,-290 57.5,-290 51.5,-290 45.5,-284 45.5,-278 45.5,-278 45.5,-266 45.5,-266 45.5,-260 51.5,-254 57.5,-254 57.5,-254 107.5,-254 107.5,-254 113.5,-254 119.5,-260 119.5,-266 119.5,-266 119.5,-278 119.5,-278 119.5,-284 113.5,-290 107.5,-290"/>
<text text-anchor="middle" x="82.5" y="-269.2" font-family="Helvetica,sans-Serif" font-size="11.00">Raw notes</text>
</g>
<!-- w2 -->
<g id="node13" class="node">
<title>w2</title>
<path fill="#fef3c7" stroke="black" d="M373.5,-290C373.5,-290 239.5,-290 239.5,-290 233.5,-290 227.5,-284 227.5,-278 227.5,-278 227.5,-266 227.5,-266 227.5,-260 233.5,-254 239.5,-254 239.5,-254 373.5,-254 373.5,-254 379.5,-254 385.5,-260 385.5,-266 385.5,-266 385.5,-278 385.5,-278 385.5,-284 379.5,-290 373.5,-290"/>
<text text-anchor="middle" x="306.5" y="-269.2" font-family="Helvetica,sans-Serif" font-size="11.00">raw&#45;to&#45;weekly&#45;learning.v1</text>
</g>
<!-- w1&#45;&gt;w2 -->
<g id="edge8" class="edge">
<title>w1&#45;&gt;w2</title>
<path fill="none" stroke="black" d="M119.74,-272C119.74,-272 217.33,-272 217.33,-272"/>
<polygon fill="black" stroke="black" points="217.33,-275.5 227.33,-272 217.33,-268.5 217.33,-275.5"/>
</g>
<!-- w3 -->
<g id="node14" class="node">
<title>w3</title>
<path fill="#fde68a" stroke="black" d="M646,-290C646,-290 541,-290 541,-290 535,-290 529,-284 529,-278 529,-278 529,-266 529,-266 529,-260 535,-254 541,-254 541,-254 646,-254 646,-254 652,-254 658,-260 658,-266 658,-266 658,-278 658,-278 658,-284 652,-290 646,-290"/>
<text text-anchor="middle" x="593.5" y="-269.2" font-family="Helvetica,sans-Serif" font-size="11.00">Weekly learning .md</text>
</g>
<!-- w2&#45;&gt;w3 -->
<g id="edge9" class="edge">
<title>w2&#45;&gt;w3</title>
<path fill="none" stroke="black" d="M385.68,-272C385.68,-272 518.6,-272 518.6,-272"/>
<polygon fill="black" stroke="black" points="518.6,-275.5 528.6,-272 518.6,-268.5 518.6,-275.5"/>
</g>
<!-- w4 -->
<g id="node15" class="node">
<title>w4</title>
<path fill="#fef3c7" stroke="black" d="M928,-290C928,-290 793,-290 793,-290 787,-290 781,-284 781,-278 781,-278 781,-266 781,-266 781,-260 787,-254 793,-254 793,-254 928,-254 928,-254 934,-254 940,-260 940,-266 940,-266 940,-278 940,-278 940,-284 934,-290 928,-290"/>
<text text-anchor="middle" x="860.5" y="-269.2" font-family="Helvetica,sans-Serif" font-size="11.00">deploy&#45;weekly&#45;learning.v1</text>
</g>
<!-- w3&#45;&gt;w4 -->
<g id="edge10" class="edge">
<title>w3&#45;&gt;w4</title>
<path fill="none" stroke="black" d="M658.13,-272C658.13,-272 770.71,-272 770.71,-272"/>
<polygon fill="black" stroke="black" points="770.71,-275.5 780.71,-272 770.71,-268.5 770.71,-275.5"/>
</g>
<!-- w5 -->
<g id="node16" class="node">
<title>w5</title>
<path fill="#fffbeb" stroke="black" d="M1197.5,-290C1197.5,-290 1105.5,-290 1105.5,-290 1099.5,-290 1093.5,-284 1093.5,-278 1093.5,-278 1093.5,-266 1093.5,-266 1093.5,-260 1099.5,-254 1105.5,-254 1105.5,-254 1197.5,-254 1197.5,-254 1203.5,-254 1209.5,-260 1209.5,-266 1209.5,-266 1209.5,-278 1209.5,-278 1209.5,-284 1203.5,-290 1197.5,-290"/>
<text text-anchor="middle" x="1151.5" y="-275.2" font-family="Helvetica,sans-Serif" font-size="11.00">Website + RSS</text>
<text text-anchor="middle" x="1151.5" y="-263.2" font-family="Helvetica,sans-Serif" font-size="11.00">+ LinkedIn/GitHub</text>
</g>
<!-- w4&#45;&gt;w5 -->
<g id="edge11" class="edge">
<title>w4&#45;&gt;w5</title>
<path fill="none" stroke="black" d="M940.02,-272C940.02,-272 1083.31,-272 1083.31,-272"/>
<polygon fill="black" stroke="black" points="1083.31,-275.5 1093.31,-272 1083.31,-268.5 1083.31,-275.5"/>
</g>
</g>
</svg>
