<?xml version="1.0" encoding="UTF-8" standalone="no"?>
<!DOCTYPE svg PUBLIC "-//W3C//DTD SVG 1.1//EN"
 "http://www.w3.org/Graphics/SVG/1.1/DTD/svg11.dtd">
<!-- Generated by graphviz version 2.43.0 (0)
 -->
<!-- Title: Ideas_to_Life_Processes Pages: 1 -->
<svg width="1043pt" height="259pt"
 viewBox="0.00 0.00 1043.00 259.00" xmlns="http://www.w3.org/2000/svg" xmlns:xlink="http://www.w3.org/1999/xlink">
<g id="graph0" class="graph" transform="scale(1 1) rotate(0) translate(4 255)">
<title>Ideas_to_Life_Processes</title>
<polygon fill="white" stroke="transparent" points="-4,4 -4,-255 1039,-255 1039,4 -4,4"/>
<g id="clust1" class="cluster">
<title>cluster_cheatsheet</title>
<polygon fill="white" stroke="#4f46e5" points="46.5,-8 46.5,-81 1027,-81 1027,-8 46.5,-8"/>
<text text-anchor="middle" x="536.75" y="-67.4" font-family="Helvetica,sans-Serif" font-size="12.00" fill="#4f46e5">🧾 Cheatsheet Creation</text>
</g>
<g id="clust2" class="cluster">
<title>cluster_experiment</title>
<polygon fill="white" stroke="#059669" points="8,-89 8,-162 816,-162 816,-89 8,-89"/>
<text text-anchor="middle" x="412" y="-148.4" font-family="Helvetica,sans-Serif" font-size="12.00" fill="#059669">🧪 Experiment Publishing</text>
</g>
<g id="clust3" class="cluster">
<title>cluster_weekly</title>
<polygon fill="white" stroke="#d97706" points="53.5,-170 53.5,-243 1015,-243 1015,-170 53.5,-170"/>
<text text-anchor="middle" x="534.25" y="-229.4" font-family="Helvetica,sans-Serif" font-size="12.00" fill="#d97706">📘 Weekly Learnings</text>
</g>
<!-- c1 -->
<g id="node1" class="node">
<title>c1</title>
<path fill="#eef2ff" stroke="black" d="M130.5,-52C130.5,-52 66.5,-52 66.5,-52 60.5,-52 54.5,-46 54.5,-40 54.5,-40 54.5,-28 54.5,-28 54.5,-22 60.5,-16 66.5,-16 66.5,-16 130.5,-16 130.5,-16 136.5,-16 142.5,-22 142.5,-28 142.5,-28 142.5,-40 142.5,-40 142.5,-46 136.5,-52 130.5,-52"/>
<text text-anchor="middle" x="98.5" y="-37.2" font-family="Helvetica,sans-Serif" font-size="11.00">Choose topic</text>
<text text-anchor="middle" x="98.5" y="-25.2" font-family="Helvetica,sans-Serif" font-size="11.00">+ audience</text>
</g>
<!-- c2 -->
<g id="node2" class="node">
<title>c2</title>
<path fill="#e0e7ff" stroke="black" d="M383,-52C383,-52 234,-52 234,-52 228,-52 222,-46 222,-40 222,-40 222,-28 222,-28 222,-22 228,-16 234,-16 234,-16 383,-16 383,-16 389,-16 395,-22 395,-28 395,-28 395,-40 395,-40 395,-46 389,-52 383,-52"/>
<text text-anchor="middle" x="308.5" y="-31.2" font-family="Helvetica,sans-Serif" font-size="11.00">Run generate&#45;cheatsheet.v1</text>
</g>
<!-- c1&#45;&gt;c2 -->
<g id="edge1" class="edge">
<title>c1&#45;&gt;c2</title>
<path fill="none" stroke="black" d="M142.6,-34C162.69,-34 187.47,-34 211.66,-34"/>
<polygon fill="black" stroke="black" points="211.97,-37.5 221.97,-34 211.97,-30.5 211.97,-37.5"/>
</g>
<!-- c3 -->
<g id="node3" class="node">
<title>c3</title>
<path fill="#dbeafe" stroke="black" d="M611,-52C611,-52 448,-52 448,-52 442,-52 436,-46 436,-40 436,-40 436,-28 436,-28 436,-22 442,-16 448,-16 448,-16 611,-16 611,-16 617,-16 623,-22 623,-28 623,-28 623,-40 623,-40 623,-46 617,-52 611,-52"/>
<text text-anchor="middle" x="529.5" y="-31.2" font-family="Helvetica,sans-Serif" font-size="11.00">public/cheatsheets/&lt;file&gt;.html</text>
</g>
<!-- c2&#45;&gt;c3 -->
<g id="edge2" class="edge">
<title>c2&#45;&gt;c3</title>
<path fill="none" stroke="black" d="M395.11,-34C405.1,-34 415.37,-34 425.56,-34"/>
<polygon fill="black" stroke="black" points="425.71,-37.5 435.71,-34 425.71,-30.5 425.71,-37.5"/>
</g>
<!-- c4 -->
<g id="node4" class="node">
<title>c4</title>
<path fill="#e0e7ff" stroke="black" d="M824,-52C824,-52 678,-52 678,-52 672,-52 666,-46 666,-40 666,-40 666,-28 666,-28 666,-22 672,-16 678,-16 678,-16 824,-16 824,-16 830,-16 836,-22 836,-28 836,-28 836,-40 836,-40 836,-46 830,-52 824,-52"/>
<text text-anchor="middle" x="751" y="-31.2" font-family="Helvetica,sans-Serif" font-size="11.00">Run wire&#45;cheatsheet&#45;link.v1</text>
</g>
<!-- c3&#45;&gt;c4 -->
<g id="edge3" class="edge">
<title>c3&#45;&gt;c4</title>
<path fill="none" stroke="black" d="M623.27,-34C634,-34 644.95,-34 655.7,-34"/>
<polygon fill="black" stroke="black" points="655.93,-37.5 665.93,-34 655.93,-30.5 655.93,-37.5"/>
</g>
<!-- c5 -->
<g id="node5" class="node">
<title>c5</title>
<path fill="#eef2ff" stroke="black" d="M1007,-52C1007,-52 891,-52 891,-52 885,-52 879,-46 879,-40 879,-40 879,-28 879,-28 879,-22 885,-16 891,-16 891,-16 1007,-16 1007,-16 1013,-16 1019,-22 1019,-28 1019,-28 1019,-40 1019,-40 1019,-46 1013,-52 1007,-52"/>
<text text-anchor="middle" x="949" y="-37.2" font-family="Helvetica,sans-Serif" font-size="11.00">Cheatsheet linked</text>
<text text-anchor="middle" x="949" y="-25.2" font-family="Helvetica,sans-Serif" font-size="11.00">from experiment page</text>
</g>
<!-- c4&#45;&gt;c5 -->
<g id="edge4" class="edge">
<title>c4&#45;&gt;c5</title>
<path fill="none" stroke="black" d="M836.26,-34C847.03,-34 858.03,-34 868.72,-34"/>
<polygon fill="black" stroke="black" points="868.85,-37.5 878.85,-34 868.85,-30.5 868.85,-37.5"/>
</g>
<!-- e1 -->
<g id="node6" class="node">
<title>e1</title>
<path fill="#ecfdf5" stroke="black" d="M169,-133C169,-133 28,-133 28,-133 22,-133 16,-127 16,-121 16,-121 16,-109 16,-109 16,-103 22,-97 28,-97 28,-97 169,-97 169,-97 175,-97 181,-103 181,-109 181,-109 181,-121 181,-121 181,-127 175,-133 169,-133"/>
<text text-anchor="middle" x="98.5" y="-118.2" font-family="Helvetica,sans-Serif" font-size="11.00">Frame idea</text>
<text text-anchor="middle" x="98.5" y="-106.2" font-family="Helvetica,sans-Serif" font-size="11.00">(experiments.template.v1)</text>
</g>
<!-- e2 -->
<g id="node7" class="node">
<title>e2</title>
<path fill="#d1fae5" stroke="black" d="M356.5,-133C356.5,-133 260.5,-133 260.5,-133 254.5,-133 248.5,-127 248.5,-121 248.5,-121 248.5,-109 248.5,-109 248.5,-103 254.5,-97 260.5,-97 260.5,-97 356.5,-97 356.5,-97 362.5,-97 368.5,-103 368.5,-109 368.5,-109 368.5,-121 368.5,-121 368.5,-127 362.5,-133 356.5,-133"/>
<text text-anchor="middle" x="308.5" y="-118.2" font-family="Helvetica,sans-Serif" font-size="11.00">Create experiment</text>
<text text-anchor="middle" x="308.5" y="-106.2" font-family="Helvetica,sans-Serif" font-size="11.00">Markdown entry</text>
</g>
<!-- e1&#45;&gt;e2 -->
<g id="edge5" class="edge">
<title>e1&#45;&gt;e2</title>
<path fill="none" stroke="black" d="M181.11,-115C199.94,-115 219.8,-115 238.05,-115"/>
<polygon fill="black" stroke="black" points="238.31,-118.5 248.31,-115 238.31,-111.5 238.31,-118.5"/>
</g>
<!-- e3 -->
<g id="node8" class="node">
<title>e3</title>
<path fill="#a7f3d0" stroke="black" d="M601,-133C601,-133 458,-133 458,-133 452,-133 446,-127 446,-121 446,-121 446,-109 446,-109 446,-103 452,-97 458,-97 458,-97 601,-97 601,-97 607,-97 613,-103 613,-109 613,-109 613,-121 613,-121 613,-127 607,-133 601,-133"/>
<text text-anchor="middle" x="529.5" y="-112.2" font-family="Helvetica,sans-Serif" font-size="11.00">Run deploy&#45;experiments.v1</text>
</g>
<!-- e2&#45;&gt;e3 -->
<g id="edge6" class="edge">
<title>e2&#45;&gt;e3</title>
<path fill="none" stroke="black" d="M368.76,-115C389.31,-115 412.86,-115 435.46,-115"/>
<polygon fill="black" stroke="black" points="435.76,-118.5 445.76,-115 435.76,-111.5 435.76,-118.5"/>
</g>
<!-- e4 -->
<g id="node9" class="node">
<title>e4</title>
<path fill="#ecfdf5" stroke="black" d="M796,-133C796,-133 706,-133 706,-133 700,-133 694,-127 694,-121 694,-121 694,-109 694,-109 694,-103 700,-97 706,-97 706,-97 796,-97 796,-97 802,-97 808,-103 808,-109 808,-109 808,-121 808,-121 808,-127 802,-133 796,-133"/>
<text text-anchor="middle" x="751" y="-118.2" font-family="Helvetica,sans-Serif" font-size="11.00">Experiment card</text>
<text text-anchor="middle" x="751" y="-106.2" font-family="Helvetica,sans-Serif" font-size="11.00">+ detail page live</text>
</g>
<!-- e3&#45;&gt;e4 -->
<g id="edge7" class="edge">
<title>e3&#45;&gt;e4</title>
<path fill="none" stroke="black" d="M613.17,-115C636.36,-115 661.26,-115 683.39,-115"/>
<polygon fill="black" stroke="black" points="683.67,-118.5 693.67,-115 683.67,-111.5 683.67,-118.5"/>
</g>
<!-- w1 -->
<g id="node10" class="node">
<title>w1</title>
<path fill="#fffbeb" stroke="black" d="M123.5,-214C123.5,-214 73.5,-214 73.5,-214 67.5,-214 61.5,-208 61.5,-202 61.5,-202 61.5,-190 61.5,-190 61.5,-184 67.5,-178 73.5,-178 73.5,-178 123.5,-178 123.5,-178 129.5,-178 135.5,-184 135.5,-190 135.5,-190 135.5,-202 135.5,-202 135.5,-208 129.5,-214 123.5,-214"/>
<text text-anchor="middle" x="98.5" y="-193.2" font-family="Helvetica,sans-Serif" font-size="11.00">Raw notes</text>
</g>
<!-- w2 -->
<g id="node11" class="node">
<title>w2</title>
<path fill="#fef3c7" stroke="black" d="M388,-214C388,-214 229,-214 229,-214 223,-214 217,-208 217,-202 217,-202 217,-190 217,-190 217,-184 223,-178 229,-178 229,-178 388,-178 388,-178 394,-178 400,-184 400,-190 400,-190 400,-202 400,-202 400,-208 394,-214 388,-214"/>
<text text-anchor="middle" x="308.5" y="-193.2" font-family="Helvetica,sans-Serif" font-size="11.00">Run raw&#45;to&#45;weekly&#45;learning.v1</text>
</g>
<!-- w1&#45;&gt;w2 -->
<g id="edge8" class="edge">
<title>w1&#45;&gt;w2</title>
<path fill="none" stroke="black" d="M135.73,-196C155.56,-196 181.22,-196 206.62,-196"/>
<polygon fill="black" stroke="black" points="206.71,-199.5 216.71,-196 206.71,-192.5 206.71,-199.5"/>
</g>
<!-- w3 -->
<g id="node12" class="node">
<title>w3</title>
<path fill="#fde68a" stroke="black" d="M582,-214C582,-214 477,-214 477,-214 471,-214 465,-208 465,-202 465,-202 465,-190 465,-190 465,-184 471,-178 477,-178 477,-178 582,-178 582,-178 588,-178 594,-184 594,-190 594,-190 594,-202 594,-202 594,-208 588,-214 582,-214"/>
<text text-anchor="middle" x="529.5" y="-193.2" font-family="Helvetica,sans-Serif" font-size="11.00">Weekly learning .md</text>
</g>
<!-- w2&#45;&gt;w3 -->
<g id="edge9" class="edge">
<title>w2&#45;&gt;w3</title>
<path fill="none" stroke="black" d="M400.16,-196C418.35,-196 437.27,-196 454.81,-196"/>
<polygon fill="black" stroke="black" points="454.96,-199.5 464.96,-196 454.96,-192.5 454.96,-199.5"/>
</g>
<!-- w4 -->
<g id="node13" class="node">
<title>w4</title>
<path fill="#fef3c7" stroke="black" d="M831,-214C831,-214 671,-214 671,-214 665,-214 659,-208 659,-202 659,-202 659,-190 659,-190 659,-184 665,-178 671,-178 671,-178 831,-178 831,-178 837,-178 843,-184 843,-190 843,-190 843,-202 843,-202 843,-208 837,-214 831,-214"/>
<text text-anchor="middle" x="751" y="-193.2" font-family="Helvetica,sans-Serif" font-size="11.00">Run deploy&#45;weekly&#45;learning.v1</text>
</g>
<!-- w3&#45;&gt;w4 -->
<g id="edge10" class="edge">
<title>w3&#45;&gt;w4</title>
<path fill="none" stroke="black" d="M594.28,-196C611.26,-196 630.04,-196 648.5,-196"/>
<polygon fill="black" stroke="black" points="648.71,-199.5 658.71,-196 648.71,-192.5 648.71,-199.5"/>
</g>
<!-- w5 -->
<g id="node14" class="node">
<title>w5</title>
<path fill="#fffbeb" stroke="black" d="M995,-214C995,-214 903,-214 903,-214 897,-214 891,-208 891,-202 891,-202 891,-190 891,-190 891,-184 897,-178 903,-178 903,-178 995,-178 995,-178 1001,-178 1007,-184 1007,-190 1007,-190 1007,-202 1007,-202 1007,-208 1001,-214 995,-214"/>
<text text-anchor="middle" x="949" y="-199.2" font-family="Helvetica,sans-Serif" font-size="11.00">Website + RSS</text>
<text text-anchor="middle" x="949" y="-187.2" font-family="Helvetica,sans-Serif" font-size="11.00">+ LinkedIn/GitHub</text>
</g>
<!-- w4&#45;&gt;w5 -->
<g id="edge11" class="edge">
<title>w4&#45;&gt;w5</title>
<path fill="none" stroke="black" d="M843.11,-196C855.84,-196 868.73,-196 880.91,-196"/>
<polygon fill="black" stroke="black" points="880.95,-199.5 890.95,-196 880.95,-192.5 880.95,-199.5"/>
</g>
</g>
</svg>
